<svg width="23" height="23" viewBox="0 0 23 23" fill="none" xmlns="http://www.w3.org/2000/svg">
<path d="M21.936 9.80741C21.8472 9.41445 21.602 9.05134 21.3222 8.89887C21.2334 8.84936 20.6832 8.7912 20.0938 8.76605C19.1066 8.72204 18.9982 8.70239 18.6838 8.52005C18.1879 8.23004 18.055 7.91566 18.0503 7.07078C18.0456 5.44939 17.3721 3.94197 16.0415 2.58623C15.0936 1.61874 14.0326 0.964837 12.8238 0.597019C12.5338 0.508208 11.8854 0.479128 9.71467 0.454764C6.30528 0.415467 5.54921 0.483844 4.38995 0.945975C2.25299 1.79086 0.72041 3.58908 0.160823 5.88716C0.057865 6.31943 0.032715 7.01184 0.00835096 10.991C-0.0207287 15.977 0.0130667 16.7087 0.322726 17.6959C1.08901 20.1323 3.26527 21.9352 5.45096 22.3282C6.17796 22.461 15.1424 22.4901 16.0611 22.3675C17.6574 22.1513 18.9101 21.5077 20.0843 20.3091C20.9339 19.4399 21.4644 18.5014 21.8134 17.2589C22.0539 16.3944 22.0342 10.2444 21.936 9.80741ZM6.11351 6.68331C6.49705 6.29506 6.60472 6.28013 9.00183 6.28013C11.1584 6.28013 11.2315 6.28484 11.5467 6.44753C12.0033 6.6786 12.2045 7.0024 12.2045 7.52348C12.2045 7.99033 12.0175 8.31885 11.6001 8.5845C11.3746 8.72675 11.2417 8.73697 9.12915 8.7464C7.82764 8.75583 6.78627 8.72675 6.6338 8.68745C5.818 8.45639 5.51384 7.2877 6.11272 6.68331H6.11351ZM15.5353 16.4973L14.8036 16.6152L10.9965 16.6592C7.65159 16.6985 6.70846 16.6396 6.53163 16.561C6.18267 16.4085 5.85336 15.9865 5.79992 15.6084C5.74569 15.25 5.92724 14.7588 6.20232 14.5081C6.55128 14.1937 6.70296 14.1843 10.9816 14.1788C15.3829 14.1741 15.3585 14.1741 15.7758 14.5623C16.37 15.1172 16.2427 16.0949 15.5353 16.4973Z" fill="white"/>
</svg>
