<svg width="20" height="16" viewBox="0 0 20 16" fill="none" xmlns="http://www.w3.org/2000/svg">
<path d="M9.95366 10.309C13.0729 10.309 15.7363 10.8035 15.7363 12.7824C15.7363 14.7605 13.09 15.273 9.95366 15.273C6.83441 15.273 4.17099 14.7785 4.17099 12.8004C4.17099 10.8215 6.81731 10.309 9.95366 10.309ZM14.941 9.11743C16.1335 9.09532 17.4155 9.25907 17.8893 9.37533C18.893 9.57264 19.5531 9.97546 19.8266 10.5609C20.0578 11.0415 20.0578 11.599 19.8266 12.0788C19.4082 12.9868 18.0594 13.2782 17.5352 13.3536C17.4269 13.3699 17.3398 13.2758 17.3512 13.1669C17.619 10.6509 15.4888 9.45802 14.9377 9.18375C14.9141 9.17146 14.9092 9.15263 14.9117 9.14117C14.9133 9.13298 14.9231 9.11988 14.941 9.11743ZM4.83508 9.11573L5.05964 9.11776C5.07754 9.12021 5.0865 9.13331 5.08813 9.14068C5.09057 9.15296 5.08568 9.17097 5.06289 9.18407C4.511 9.45835 2.38075 10.6512 2.64856 13.1664C2.65996 13.2761 2.57367 13.3694 2.46541 13.3539C1.94119 13.2786 0.59239 12.9871 0.173993 12.0791C-0.0579977 11.5985 -0.0579977 11.0418 0.173993 10.5612C0.447498 9.97579 1.10684 9.57297 2.1105 9.37484C2.58507 9.2594 3.86631 9.09565 5.05964 9.11776L4.83508 9.11573ZM9.95366 0.727539C12.0774 0.727539 13.7803 2.43869 13.7803 4.57559C13.7803 6.71166 12.0774 8.42445 9.95366 8.42445C7.82993 8.42445 6.12704 6.71166 6.12704 4.57559C6.12704 2.43869 7.82993 0.727539 9.95366 0.727539ZM15.1485 1.36926C17.1998 1.36926 18.8107 3.31048 18.2621 5.47275C17.8917 6.92846 16.5511 7.89539 15.0574 7.85609C14.9076 7.85199 14.7603 7.83808 14.6178 7.81351C14.5144 7.7955 14.4623 7.67842 14.521 7.59164C15.0908 6.74834 15.4155 5.73393 15.4155 4.64501C15.4155 3.50861 15.0606 2.44917 14.4444 1.5805C14.4249 1.55348 14.4102 1.51172 14.4298 1.48061C14.4461 1.45523 14.4762 1.44213 14.5047 1.43558C14.7122 1.39301 14.9255 1.36926 15.1485 1.36926ZM4.85084 1.36918C5.07388 1.36918 5.28715 1.39292 5.49553 1.4355C5.52321 1.44205 5.55414 1.45597 5.57042 1.48053C5.58914 1.51164 5.57531 1.5534 5.55577 1.58041C4.93957 2.44909 4.58467 3.50853 4.58467 4.64493C4.58467 5.73385 4.90945 6.74826 5.47925 7.59155C5.53786 7.67834 5.48577 7.79542 5.38239 7.81343C5.23912 7.83881 5.0926 7.85191 4.94283 7.85601C3.44913 7.8953 2.10847 6.92838 1.7381 5.47267C1.18865 3.3104 2.79956 1.36918 4.85084 1.36918Z" fill="white"/>
</svg>
