<svg width="21" height="25" viewBox="0 0 21 25" fill="none" xmlns="http://www.w3.org/2000/svg">
<path d="M15.0755 24.2577C13.4407 24.546 11.8498 24.5068 10.3026 24.1403C8.75535 23.773 7.35614 23.1514 6.105 22.2753C4.85387 21.3993 3.79153 20.297 2.91796 18.9685C2.04362 17.6401 1.46231 16.1586 1.17406 14.5238C0.885802 12.889 0.925321 11.298 1.29262 9.75069C1.65913 8.20355 2.28041 6.8044 3.15646 5.55327C4.03251 4.30214 5.13478 3.23979 6.46327 2.36623C7.79162 1.49188 9.27319 0.91058 10.908 0.622324C11.9519 0.438257 12.9944 0.391316 14.0354 0.481507C15.0774 0.572344 16.0983 0.803783 17.0981 1.17582C15.4539 2.5624 14.2649 4.25458 13.5311 6.25236C12.7964 8.25028 12.6167 10.3128 12.9918 12.44C13.3668 14.5672 14.2412 16.4439 15.6148 18.0701C16.9877 19.6964 18.6838 20.8798 20.7031 21.6204C19.8908 22.312 19.0106 22.8786 18.0625 23.3204C17.1151 23.7612 16.1194 24.0736 15.0755 24.2577Z" fill="#2D2D2D"/>
</svg>
