<svg width="100" height="35" viewBox="0 0 100 35" fill="none" xmlns="http://www.w3.org/2000/svg">
<path d="M19.6848 0.0979718L11.9254 5.27089C11.6192 5.47507 11.5763 5.90838 11.8365 6.16865L19.9118 14.244C20.0212 14.3533 20.0827 14.5017 20.0827 14.6564V24.9906C20.0827 25.4564 20.6019 25.7343 20.9895 25.4759L28.5722 20.4208C28.7344 20.3126 28.8319 20.1305 28.8319 19.9355V8.82357C28.8319 8.66888 28.7705 8.52052 28.6611 8.41113L20.4208 0.17085C20.2242 -0.0257542 19.9161 -0.0562569 19.6848 0.0979718Z" fill="#1529C1"/>
<path d="M8.01914 8.84721L0.259764 14.0201C-0.0464958 14.2243 -0.089403 14.6576 0.170868 14.9179L8.24617 22.9932C8.35556 23.1026 8.41701 23.2509 8.41701 23.4056V33.7398C8.41701 34.2057 8.93622 34.4836 9.32384 34.2251L16.9065 29.17C17.0688 29.0618 17.1663 28.8797 17.1663 28.6847V17.5728C17.1663 17.4181 17.1048 17.2698 16.9954 17.1604L8.75513 8.92009C8.55853 8.72349 8.25049 8.69299 8.01914 8.84721Z" fill="#1529C1"/>
<path d="M39.194 26.3193C42.2147 26.3193 44.1283 24.6381 44.1283 21.7404C44.1283 18.8428 42.2147 17.1616 39.194 17.1616H34.5605V26.3193H39.194ZM39.194 19.4715C40.8206 19.4715 41.381 19.6765 41.381 21.7404C41.381 23.8043 40.8206 24.0093 39.194 24.0093H37.1302V19.4715H39.194Z" fill="white"/>
<path d="M45.8469 28.6429C47.8562 28.6429 48.9086 28.2191 49.6467 26.5926L52.7144 19.4305H50.0431L48.5669 23.7223L46.708 19.4305H43.783L47.0771 26.2373C46.9677 26.2919 46.8037 26.3193 46.5987 26.3193H44.6031V28.6429H45.8469Z" fill="white"/>
<path d="M55.284 26.3193V22.7655C55.284 21.8771 55.5573 21.5901 56.6918 21.5901C57.8126 21.5901 58.168 21.8908 58.168 22.8475V26.3193H60.7376V21.9044C60.7376 20.4146 59.8628 19.2938 58.0039 19.2938C56.1587 19.2938 55.407 20.3736 55.2566 21.5217L55.1582 22.2188L55.12 19.4305H52.7144V26.3193H55.284Z" fill="white"/>
<path d="M63.2468 26.4559C64.7366 26.4559 65.8331 25.5812 66.0928 24.6108L65.9804 26.3193H68.386V22.3965C68.386 20.4693 67.2242 19.2938 64.8186 19.2938C62.4813 19.2938 60.9505 20.4693 60.9505 22.3008V22.3282H63.5201V22.2735C63.5201 21.6994 63.7798 21.5354 64.6273 21.5354C65.543 21.5354 65.8437 21.6447 65.8437 22.3418V22.4785L63.0417 22.7519C61.4836 22.9022 60.8138 23.5993 60.8138 24.5697C60.8138 25.7452 61.6886 26.4559 63.2468 26.4559ZM63.3971 24.4057C63.3971 24.2554 63.4928 24.1734 63.7252 24.146L65.8301 23.9C65.7617 24.5151 65.256 24.6654 64.0122 24.6654C63.6158 24.6654 63.3971 24.6244 63.3971 24.4057Z" fill="white"/>
<path d="M71.2389 26.3193V22.7655C71.2389 21.8771 71.4576 21.5901 72.5101 21.5901C73.5762 21.5901 73.8495 21.8908 73.8495 22.8475V26.3193H76.4192V22.7655C76.4192 21.8771 76.6379 21.5901 77.6903 21.5901C78.7564 21.5901 79.0298 21.8908 79.0298 22.8475V26.3193H81.5994V21.9044C81.5994 20.4146 80.7656 19.2938 79.0025 19.2938C77.2119 19.2938 76.5558 20.3736 76.4055 21.5217L76.3439 22.2188C76.2072 20.975 75.353 19.2938 73.7265 19.2938C71.9907 19.2938 71.3619 20.3736 71.2116 21.5217L71.0749 22.2188V19.4305H68.6693V26.3193H71.2389Z" fill="white"/>
<path d="M84.4554 18.8018V17.1616H81.8858V18.8018H84.4554ZM84.4554 26.3193V19.4305H81.8858V26.3193H84.4554Z" fill="white"/>
<path d="M88.6659 26.4559C91.0168 26.4559 92.5203 25.2395 92.5203 23.4079V23.1756H89.9643V23.2986C89.9643 24.0093 89.4449 24.146 88.6112 24.146C87.6681 24.146 87.217 23.941 87.217 22.8749C87.217 21.7951 87.6681 21.5901 88.6112 21.5901C89.4449 21.5901 89.9643 21.7404 89.9643 22.4512V22.5605H92.5203V22.3418C92.5203 20.4966 91.0168 19.2938 88.6659 19.2938C86.2193 19.2938 84.6611 20.6333 84.6611 22.8749C84.6611 25.1028 86.2193 26.4559 88.6659 26.4559Z" fill="white"/>
<path d="M96.4326 26.4559C98.7152 26.4559 100 25.5265 100 24.2417C100 23.0799 99.3576 22.4102 97.3484 22.1915L95.9816 22.0411C95.1751 21.9591 95.0658 21.8634 95.0658 21.6721C95.0658 21.4124 95.1751 21.303 96.0089 21.303C97.0477 21.303 97.1844 21.4671 97.1844 21.8224V21.9044H99.754V21.8498C99.754 20.1549 98.4828 19.2938 96.0909 19.2938C93.5076 19.2938 92.5372 20.3463 92.5372 21.5627C92.5372 22.7245 93.3026 23.3943 94.7241 23.5446L96.7196 23.7633C97.362 23.8317 97.4714 23.8863 97.4714 24.105C97.4714 24.3374 97.3347 24.4331 96.4463 24.4331C95.5168 24.4331 95.2708 24.3921 95.2708 24.0093V23.8727H92.7012V23.9273C92.7012 25.5128 93.9997 26.4559 96.4326 26.4559Z" fill="white"/>
<path d="M40.3696 14.8389V7.99118H43.5952V5.68126H34.5606V7.99118H37.7999V14.8389H40.3696Z" fill="white"/>
<path d="M46.3071 14.8389V11.2852C46.3071 10.3968 46.5941 10.1098 47.7833 10.1098C48.9587 10.1098 49.3278 10.4105 49.3278 11.3672V14.8389H51.8974V10.5061C51.8974 8.97529 51.0226 7.8135 49.1911 7.8135C47.4279 7.8135 46.6625 8.87962 46.4438 10.0414L46.3071 10.7385V5.68126H43.7375V14.8389H46.3071Z" fill="white"/>
<path d="M56.0296 14.9756C58.3532 14.9756 59.8157 13.8958 59.8157 12.365V12.201H57.246V12.3513C57.246 12.7614 56.9727 12.9391 55.9339 12.9391C54.8404 12.9391 54.4714 12.7067 54.4304 11.8729H59.8293C59.8567 11.6269 59.8703 11.4492 59.8703 11.2169C59.8703 9.00263 58.3532 7.8135 55.9749 7.8135C53.6786 7.8135 52.0521 9.15298 52.0521 11.3946C52.0521 13.9779 53.6923 14.9756 56.0296 14.9756ZM55.9202 9.78172C56.877 9.78172 57.287 9.98674 57.3827 10.5745H54.4714C54.5807 9.98674 54.9771 9.78172 55.9202 9.78172Z" fill="white"/>
</svg>
