<svg width="34" height="40" viewBox="0 0 34 40" fill="none" xmlns="http://www.w3.org/2000/svg">
<path d="M22.9399 0.114173L13.8974 6.1425C13.5405 6.38043 13.4905 6.88541 13.7938 7.18872L23.2045 16.5994C23.332 16.7268 23.4036 16.8997 23.4036 17.08V29.1231C23.4036 29.666 24.0086 29.9898 24.4604 29.6887L33.2969 23.7976C33.486 23.6715 33.5996 23.4593 33.5996 23.232V10.2827C33.5996 10.1024 33.528 9.92949 33.4005 9.80201L23.7976 0.199102C23.5685 -0.0300129 23.2095 -0.0655597 22.9399 0.114173Z" fill="#1529C1"/>
<path d="M9.34521 10.3102L0.302719 16.3385C-0.0541843 16.5765 -0.104187 17.0814 0.199123 17.3848L9.60978 26.7954C9.73725 26.9229 9.80887 27.0958 9.80887 27.2761V39.3191C9.80887 39.862 10.4139 40.1858 10.8657 39.8847L19.7022 33.9936C19.8913 33.8676 20.0049 33.6553 20.0049 33.4281V20.4787C20.0049 20.2984 19.9333 20.1255 19.8058 19.9981L10.2029 10.3951C9.97379 10.166 9.61481 10.1305 9.34521 10.3102Z" fill="#1529C1"/>
</svg>
