<svg width="20" height="23" viewBox="0 0 20 23" fill="none" xmlns="http://www.w3.org/2000/svg">
<path d="M14.0552 0.222659C14.5269 0.221551 14.8999 0.588034 14.901 1.07668L14.9021 1.90959C17.9628 2.14947 19.9846 4.2351 19.9879 7.43349L20 16.7955C20.0044 20.2826 17.8136 22.4282 14.302 22.4338L5.72432 22.4449C2.23467 22.4493 0.0164702 20.2526 0.0120821 16.7555L7.36377e-06 7.50346C-0.00437337 4.28396 1.94615 2.20389 5.00686 1.92292L5.00577 1.09C5.00467 0.60136 5.36669 0.233767 5.84938 0.233767C6.33208 0.232656 6.6941 0.599139 6.6952 1.08778L6.69629 1.86517L13.2127 1.85629L13.2116 1.0789C13.2105 0.590255 13.5725 0.223772 14.0552 0.222659ZM14.5028 15.9914H14.4918C13.9872 16.0036 13.5824 16.4268 13.5933 16.9376C13.5944 17.4485 14.0014 17.8694 14.5061 17.8805C15.0206 17.8794 15.4374 17.4563 15.4363 16.9343C15.4363 16.4123 15.0184 15.9914 14.5028 15.9914ZM5.46323 15.9925C4.9586 16.0148 4.56366 16.4379 4.56476 16.9487C4.5878 17.4596 5.00467 17.8594 5.5093 17.8361C6.00407 17.8139 6.3979 17.3907 6.37486 16.8799C6.36389 16.3801 5.95689 15.9914 5.46323 15.9925ZM9.983 15.987C9.47836 16.0103 9.08453 16.4323 9.08453 16.9432C9.10757 17.454 9.52444 17.8527 10.0291 17.8305C10.5227 17.8072 10.9177 17.3852 10.8946 16.8732C10.8837 16.3746 10.4767 15.9859 9.983 15.987ZM5.45774 11.9945C4.95311 12.0168 4.55928 12.4399 4.56037 12.9507C4.58231 13.4616 5.00028 13.8614 5.50492 13.8381C5.99858 13.8159 6.39241 13.3927 6.36938 12.8819C6.35841 12.3821 5.95251 11.9934 5.45774 11.9945ZM9.97861 11.9557C9.47398 11.9779 9.07904 12.401 9.08014 12.9119C9.10208 13.4227 9.52005 13.8214 10.0247 13.7992C10.5183 13.7759 10.9122 13.3539 10.8902 12.843C10.8782 12.3433 10.4723 11.9546 9.97861 11.9557ZM14.4984 11.9612C13.9937 11.9723 13.5988 12.3832 13.5999 12.8941V12.9063C13.6109 13.4172 14.0278 13.8047 14.5335 13.7936C15.0271 13.7814 15.421 13.3583 15.41 12.8475C15.387 12.3588 14.9909 11.9601 14.4984 11.9612ZM13.2149 3.56654L6.69849 3.57543L6.69958 4.47387C6.69958 4.95251 6.33866 5.3301 5.85597 5.3301C5.37327 5.33121 5.01016 4.95474 5.01016 4.47609L5.00906 3.62096C2.86985 3.8353 1.68615 5.09244 1.68944 7.50124L1.69054 7.84662L18.2996 7.82441V7.43572C18.2524 5.04802 17.0545 3.79532 14.9043 3.60874L14.9054 4.46387C14.9054 4.94141 14.5335 5.32011 14.0618 5.32011C13.5791 5.32122 13.2159 4.94363 13.2159 4.46609L13.2149 3.56654Z" fill="white"/>
</svg>
