<svg width="20" height="20" viewBox="0 0 20 20" fill="none" xmlns="http://www.w3.org/2000/svg">
<path d="M9.13632 0.375C11.5257 0.375 13.4744 2.29028 13.4744 4.6483V9.25846H7.59892C7.17784 9.25846 6.8449 9.58569 6.8449 9.99955C6.8449 10.4038 7.17784 10.7406 7.59892 10.7406H13.4744V15.3412C13.4744 17.6992 11.5257 19.6241 9.11674 19.6241H4.34783C1.94869 19.6241 0 17.7088 0 15.3508V4.65792C0 2.29028 1.95848 0.375 4.35763 0.375H9.13632ZM15.9192 6.67927C16.2079 6.38091 16.6795 6.38091 16.9683 6.66965L19.7786 9.47039C19.923 9.61476 20 9.79762 20 9.99974C20 10.1922 19.923 10.3847 19.7786 10.5195L16.9683 13.3202C16.8239 13.4646 16.6314 13.5416 16.4485 13.5416C16.2561 13.5416 16.0636 13.4646 15.9192 13.3202C15.6305 13.0315 15.6305 12.5599 15.9192 12.2711L17.4591 10.7408H13.4746V9.25865H17.4591L15.9192 7.72835C15.6305 7.43961 15.6305 6.96801 15.9192 6.67927Z" fill="white"/>
</svg>
