<svg width="20" height="23" viewBox="0 0 20 23" fill="none" xmlns="http://www.w3.org/2000/svg">
<path d="M14.6567 0C18.0889 0 20 1.97778 20 5.36667V16.8444C20 20.2889 18.0889 22.2222 14.6567 22.2222H5.34444C1.96667 22.2222 0 20.2889 0 16.8444V5.36667C0 1.97778 1.96667 0 5.34444 0H14.6567ZM5.64444 15.2667C5.31111 15.2333 4.98889 15.3889 4.81111 15.6778C4.63333 15.9556 4.63333 16.3222 4.81111 16.6111C4.98889 16.8889 5.31111 17.0556 5.64444 17.0111H14.3556C14.7989 16.9667 15.1333 16.5878 15.1333 16.1444C15.1333 15.6889 14.7989 15.3111 14.3556 15.2667H5.64444ZM14.3556 10.1989H5.64444C5.16556 10.1989 4.77778 10.5889 4.77778 11.0667C4.77778 11.5444 5.16556 11.9333 5.64444 11.9333H14.3556C14.8333 11.9333 15.2222 11.5444 15.2222 11.0667C15.2222 10.5889 14.8333 10.1989 14.3556 10.1989ZM8.96556 5.16667H5.64444V5.17778C5.16556 5.17778 4.77778 5.56667 4.77778 6.04444C4.77778 6.52222 5.16556 6.91111 5.64444 6.91111H8.96556C9.44445 6.91111 9.83333 6.52222 9.83333 6.03222C9.83333 5.55556 9.44445 5.16667 8.96556 5.16667Z" fill="white"/>
</svg>
