<svg width="18" height="18" viewBox="0 0 18 18" fill="none" xmlns="http://www.w3.org/2000/svg">
<path fill-rule="evenodd" clip-rule="evenodd" d="M8.45983 0C13.1245 0 16.9188 3.79428 16.9188 8.45896C16.9188 10.6597 16.0742 12.667 14.6921 14.1734L17.4117 16.8873C17.6662 17.1418 17.667 17.5535 17.4125 17.808C17.2857 17.9366 17.1181 18 16.9513 18C16.7854 18 16.6186 17.9366 16.4909 17.8098L13.7385 15.0651C12.2907 16.2246 10.4548 16.9188 8.45983 16.9188C3.79515 16.9188 0 13.1236 0 8.45896C0 3.79428 3.79515 0 8.45983 0ZM8.45983 1.30298C4.51353 1.30298 1.30298 4.51266 1.30298 8.45896C1.30298 12.4053 4.51353 15.6158 8.45983 15.6158C12.4053 15.6158 15.6158 12.4053 15.6158 8.45896C15.6158 4.51266 12.4053 1.30298 8.45983 1.30298Z" fill="#2D2D2D"/>
</svg>
