<svg width="20" height="22" viewBox="0 0 20 22" fill="none" xmlns="http://www.w3.org/2000/svg">
<path d="M10.755 0.918945C11.551 0.918945 12.2718 1.36105 12.6698 2.01368C12.8634 2.32947 12.9925 2.71895 12.9603 3.12947C12.9387 3.44526 13.0356 3.76105 13.2077 4.05579C13.7563 4.95052 14.9719 5.28737 15.9185 4.7821C16.9835 4.17158 18.3282 4.54 18.9414 5.5821L19.6621 6.82421C20.2861 7.86631 19.9418 9.20316 18.8661 9.80316C17.9517 10.34 17.629 11.5295 18.1776 12.4347C18.3497 12.7189 18.5434 12.9611 18.8446 13.1084C19.2211 13.3084 19.5115 13.6242 19.7159 13.94C20.114 14.5926 20.0817 15.3926 19.6944 16.0979L18.9414 17.3611C18.5434 18.0347 17.8011 18.4558 17.0373 18.4558C16.6608 18.4558 16.2413 18.3505 15.897 18.14C15.6173 17.9611 15.2946 17.8979 14.9504 17.8979C13.8854 17.8979 12.9925 18.7716 12.9603 19.8137C12.9603 21.0242 11.9706 21.9716 10.7335 21.9716H9.27045C8.02258 21.9716 7.0329 21.0242 7.0329 19.8137C7.01138 18.7716 6.11852 17.8979 5.05353 17.8979C4.69853 17.8979 4.37581 17.9611 4.10687 18.14C3.76263 18.3505 3.33234 18.4558 2.96658 18.4558C2.19205 18.4558 1.44978 18.0347 1.05176 17.3611L0.309495 16.0979C-0.088531 15.4137 -0.110046 14.5926 0.28798 13.94C0.460099 13.6242 0.782822 13.3084 1.14858 13.1084C1.44978 12.9611 1.64342 12.7189 1.82629 12.4347C2.36417 11.5295 2.04144 10.34 1.12706 9.80316C0.0620733 9.20316 -0.282165 7.86631 0.331009 6.82421L1.05176 5.5821C1.67569 4.54 3.00961 4.17158 4.08536 4.7821C5.02126 5.28737 6.23685 4.95052 6.78548 4.05579C6.9576 3.76105 7.05441 3.44526 7.0329 3.12947C7.01138 2.71895 7.12972 2.32947 7.33411 2.01368C7.73213 1.36105 8.45288 0.939998 9.23818 0.918945H10.755ZM10.0127 8.47684C8.32379 8.47684 6.9576 9.80316 6.9576 11.4558C6.9576 13.1084 8.32379 14.4242 10.0127 14.4242C11.7016 14.4242 13.0356 13.1084 13.0356 11.4558C13.0356 9.80316 11.7016 8.47684 10.0127 8.47684Z" fill="white"/>
</svg>
