<svg width="20" height="20" viewBox="0 0 20 20" fill="none" xmlns="http://www.w3.org/2000/svg">
<path d="M2.63668 0.230667C3.34408 -0.0216935 4.10858 -0.0680773 4.8413 0.0969084C5.57402 0.261894 6.24486 0.631472 6.77582 1.16267C7.30679 1.69387 7.67606 2.36488 7.84072 3.09767C8.00538 3.83046 7.95865 4.59494 7.70598 5.30223L19.9995 17.5957L17.594 20L5.30056 7.70765C4.59316 7.96001 3.82866 8.00639 3.09594 7.8414C2.36322 7.67642 1.69238 7.30684 1.16142 6.77564C0.630454 6.24444 0.261177 5.57344 0.0965191 4.84064C-0.0681389 4.10785 -0.0214134 3.34337 0.231264 2.63609L2.76591 5.17187C2.92276 5.33427 3.11038 5.4638 3.31783 5.55292C3.52528 5.64203 3.7484 5.68894 3.97417 5.6909C4.19994 5.69286 4.42384 5.64984 4.63281 5.56434C4.84177 5.47885 5.03162 5.35259 5.19127 5.19294C5.35092 5.03329 5.47718 4.84345 5.56267 4.63448C5.64817 4.42551 5.69119 4.20161 5.68923 3.97584C5.68726 3.75007 5.64036 3.52695 5.55125 3.3195C5.46213 3.11206 5.3326 2.92443 5.1702 2.76758L2.63555 0.229534L2.63668 0.230667ZM14.3883 2.3663L17.9953 0.362161L19.5982 1.96502L17.594 5.57201L15.5899 5.9733L13.1868 8.37758L11.5828 6.77472L13.987 4.37044L14.3883 2.3663ZM6.37291 11.1831L8.77719 13.5886L3.16606 19.1997C2.85664 19.5062 2.44139 19.6823 2.00595 19.6917C1.57051 19.7011 1.14807 19.543 0.825764 19.25C0.503456 18.9571 0.305849 18.5516 0.273694 18.1173C0.24154 17.6829 0.377289 17.2528 0.652949 16.9156L0.762905 16.7943L6.37404 11.1831H6.37291Z" fill="white"/>
</svg>
